<?xml version="1.0" encoding="UTF-8" standalone="no"?>
<svg
   width="16"
   height="16"
   viewBox="0 0 4.2333332 4.2333332"
   version="1.1"
   id="svg8"
   sodipodi:docname="constructor.svg"
   inkscape:version="1.1.1 (3bf5ae0d25, 2021-09-20)"
   xmlns:inkscape="http://www.inkscape.org/namespaces/inkscape"
   xmlns:sodipodi="http://sodipodi.sourceforge.net/DTD/sodipodi-0.dtd"
   xmlns:xlink="http://www.w3.org/1999/xlink"
   xmlns="http://www.w3.org/2000/svg"
   xmlns:svg="http://www.w3.org/2000/svg"
   xmlns:rdf="http://www.w3.org/1999/02/22-rdf-syntax-ns#"
   xmlns:cc="http://creativecommons.org/ns#"
   xmlns:dc="http://purl.org/dc/elements/1.1/">
  <sodipodi:namedview
     id="namedview21"
     pagecolor="#ffffff"
     bordercolor="#666666"
     borderopacity="1.0"
     inkscape:pageshadow="2"
     inkscape:pageopacity="0.0"
     inkscape:pagecheckerboard="0"
     showgrid="false"
     inkscape:zoom="44.9375"
     inkscape:cx="7.6884562"
     inkscape:cy="8"
     inkscape:window-width="1920"
     inkscape:window-height="1137"
     inkscape:window-x="-8"
     inkscape:window-y="-8"
     inkscape:window-maximized="1"
     inkscape:current-layer="layer1" />
  <defs
     id="defs2">
    <linearGradient
       id="linearGradient940">
      <stop
         style="stop-color:#44a8f3;stop-opacity:1"
         offset="0"
         id="stop936" />
      <stop
         style="stop-color:#2196f3;stop-opacity:1"
         offset="0.49936226"
         id="stop944" />
      <stop
         style="stop-color:#44a8f3;stop-opacity:1"
         offset="1"
         id="stop938" />
    </linearGradient>
    <linearGradient
       xlink:href="#linearGradient940"
       id="linearGradient942"
       x1="2.1166666"
       y1="0.26458332"
       x2="2.1166666"
       y2="3.9687498"
       gradientUnits="userSpaceOnUse" />
    <filter
       style="color-interpolation-filters:sRGB;"
       id="filter1135"
       x="-0.096794256"
       y="-0.068040278"
       width="1.1935885"
       height="1.1927808">
      <feFlood
         flood-opacity="0.498039"
         flood-color="rgb(0,0,0)"
         result="flood"
         id="feFlood1125" />
      <feComposite
         in="flood"
         in2="SourceGraphic"
         operator="in"
         result="composite1"
         id="feComposite1127" />
      <feGaussianBlur
         in="composite1"
         stdDeviation="0.1"
         result="blur"
         id="feGaussianBlur1129" />
      <feOffset
         dx="0"
         dy="0.2"
         result="offset"
         id="feOffset1131" />
      <feComposite
         in="SourceGraphic"
         in2="offset"
         operator="over"
         result="composite2"
         id="feComposite1133" />
    </filter>
  </defs>
  <metadata
     id="metadata5">
    <rdf:RDF>
      <cc:Work
         rdf:about="">
        <dc:format>image/svg+xml</dc:format>
        <dc:type
           rdf:resource="http://purl.org/dc/dcmitype/StillImage" />
        <dc:title />
      </cc:Work>
    </rdf:RDF>
  </metadata>
  <g
     id="layer1">
    <rect
       style="fill:#d21928;fill-opacity:1;fill-rule:evenodd;stroke-width:0.264583;stroke-miterlimit:4;stroke-dasharray:none"
       id="rect18"
       width="4.2333331"
       height="4.2333331"
       x="1.9629277e-07"
       y="0"
       ry="1.0583333" />
    <rect
       style="fill:#f3213f;fill-opacity:1;stroke:none;stroke-width:0.264583;stroke-miterlimit:4;stroke-dasharray:none;stroke-opacity:1"
       id="rect847"
       width="3.7041667"
       height="3.7041667"
       x="0.26458332"
       y="0.26458332"
       ry="1.0583333"
       rx="1.0583334" />
    <g
       aria-label="C"
       transform="scale(1.1079108,0.90259972)"
       id="text948"
       style="font-style:normal;font-variant:normal;font-weight:normal;font-stretch:normal;font-size:16.0747px;line-height:1.25;font-family:'Roboto Mono';-inkscape-font-specification:'Roboto Mono';fill:#ffffff;fill-opacity:1;stroke:none;stroke-width:0.401866;filter:url(#filter1135)">
      <path
         d="M 3.1407176,2.9947881 H 2.5261441 q -0.011773,0.1554093 -0.056512,0.270789 -0.044739,0.1153797 -0.120089,0.1907297 -0.07535,0.077705 -0.1836656,0.1153797 -0.1083157,0.03532 -0.2472422,0.03532 -0.1106704,0 -0.1977938,-0.028256 Q 1.6360723,3.5504943 1.5654316,3.4963365 1.5018551,3.4445334 1.4524066,3.3691834 1.4053129,3.2938334 1.3723472,3.2020006 1.3276082,3.0795568 1.306416,2.9241474 1.2852238,2.7687381 1.2852238,2.580363 V 2.1094255 q 0,-0.1459906 0.014128,-0.2778531 0.014128,-0.1318625 0.047094,-0.2425328 0.037675,-0.1389266 0.1036062,-0.2448875 0.065931,-0.1083156 0.1601188,-0.1695375 0.061222,-0.044739 0.1389266,-0.068286 0.080059,-0.023547 0.1718921,-0.023547 0.1530547,0 0.2613704,0.042384 0.1106703,0.042384 0.1836656,0.1247985 0.072995,0.082414 0.1106703,0.2025031 0.04003,0.1177344 0.051803,0.2707891 H 3.1430723 Q 3.1171707,1.4595318 3.0276926,1.2476099 2.9382145,1.035688 2.7851598,0.88969739 2.6321051,0.74135208 2.4154738,0.6612927 2.1988426,0.58123332 1.9209894,0.58123332 q -0.195439,0 -0.3626218,0.0518031 Q 1.3911847,0.68248489 1.2546129,0.77667239 1.1015582,0.88263333 0.9838238,1.0333333 0.86844411,1.1840333 0.7954488,1.374763 0.72951755,1.5372365 0.69655192,1.7256115 0.6635863,1.9116318 0.6635863,2.1141349 V 2.580363 q 0,0.2142766 0.0353203,0.4097157 0.0353203,0.195439 0.10360625,0.3602672 0.0682859,0.1671828 0.16953751,0.3061094 0.10360623,0.1365718 0.23546873,0.2354687 0.1412813,0.1036063 0.3202375,0.1601188 0.1789563,0.056513 0.3908782,0.056513 0.263725,0 0.4803562,-0.077705 0.2166313,-0.080059 0.3743953,-0.22605 0.1577641,-0.1459907 0.2519516,-0.3508485 0.094188,-0.2048578 0.1153797,-0.459164 z"
         style="font-style:normal;font-variant:normal;font-weight:600;font-stretch:normal;font-size:4.8224px;font-family:'Roboto Mono';-inkscape-font-specification:'Roboto Mono Semi-Bold';fill:#ffffff;fill-opacity:1;stroke-width:0.401866"
         id="path846" />
    </g>
  </g>
</svg>
